<svg width="75" height="93" viewBox="0 0 75 93" fill="none" xmlns="http://www.w3.org/2000/svg">
<path d="M71.5291 11.5292L25.7736 61.9402L12.621 61.9409V48.8056L63.0107 3.01073L71.5291 11.5292Z" stroke="#3B2159"/>
<path d="M43.3502 20.8197H12.6304V61.9337H53.7444V31.3347" stroke="#3B2159"/>
<path d="M50.1771 14.8198L6.63037 14.8198V67.9336H59.7442V24.6456" stroke="#3B2159"/>
<path d="M0.630347 73.9336H65.7441V17.7721M0.630347 73.9336L0.501 8.81982L56.6262 8.82364M0.630347 73.9336V91.4482H16.8268" stroke="#3B2159"/>
<circle cx="21.1925" cy="29.3075" r="5.51599" stroke="#3B2159"/>
<circle cx="41.9053" cy="56.0694" r="2.5" stroke="#3B2159"/>
<circle cx="47.9053" cy="50.0694" r="2.5" transform="rotate(-90 47.9053 50.0694)" stroke="#3B2159"/>
<path d="M16.0142 91.9457L17.4062 83.1857H19.6742C20.2422 83.1857 20.7142 83.2937 21.0902 83.5097C21.4742 83.7257 21.7462 84.0297 21.9062 84.4217C22.0742 84.8137 22.1142 85.2777 22.0262 85.8137L21.4742 89.3057C21.3942 89.8417 21.2062 90.3097 20.9102 90.7097C20.6222 91.1017 20.2542 91.4057 19.8062 91.6217C19.3582 91.8377 18.8502 91.9457 18.2822 91.9457H16.0142ZM17.2502 90.9857H18.4382C18.9662 90.9857 19.4022 90.8377 19.7462 90.5417C20.0982 90.2457 20.3142 89.8337 20.3942 89.3057L20.9462 85.8137C21.0342 85.2937 20.9502 84.8857 20.6942 84.5897C20.4382 84.2937 20.0462 84.1457 19.5182 84.1457H18.3302L17.2502 90.9857Z" fill="#3B2159"/>
<path d="M25.6815 92.0657C25.1615 92.0657 24.7255 91.9657 24.3735 91.7657C24.0295 91.5657 23.7855 91.2777 23.6415 90.9017C23.4975 90.5177 23.4655 90.0657 23.5455 89.5457L24.1695 85.5857C24.2575 85.0577 24.4335 84.6057 24.6975 84.2297C24.9615 83.8537 25.2975 83.5657 25.7055 83.3657C26.1215 83.1657 26.5895 83.0657 27.1095 83.0657C27.6375 83.0657 28.0735 83.1657 28.4175 83.3657C28.7695 83.5657 29.0175 83.8537 29.1615 84.2297C29.3135 84.6057 29.3455 85.0537 29.2575 85.5737L28.6335 89.5457C28.5535 90.0657 28.3775 90.5177 28.1055 90.9017C27.8415 91.2777 27.5015 91.5657 27.0855 91.7657C26.6775 91.9657 26.2095 92.0657 25.6815 92.0657ZM25.8375 91.0937C26.3095 91.0937 26.6935 90.9617 26.9895 90.6977C27.2855 90.4257 27.4735 90.0417 27.5535 89.5457L28.1775 85.5857C28.2575 85.0897 28.1895 84.7097 27.9735 84.4457C27.7655 84.1737 27.4255 84.0377 26.9535 84.0377C26.4895 84.0377 26.1095 84.1737 25.8135 84.4457C25.5175 84.7097 25.3295 85.0897 25.2495 85.5857L24.6255 89.5457C24.5455 90.0417 24.6095 90.4257 24.8175 90.6977C25.0335 90.9617 25.3735 91.0937 25.8375 91.0937Z" fill="#3B2159"/>
<path d="M32.8768 92.0657C32.3568 92.0657 31.9208 91.9657 31.5688 91.7657C31.2248 91.5657 30.9808 91.2777 30.8368 90.9017C30.6928 90.5177 30.6608 90.0657 30.7408 89.5457L31.3648 85.5857C31.4528 85.0577 31.6288 84.6057 31.8928 84.2297C32.1568 83.8537 32.4928 83.5657 32.9008 83.3657C33.3168 83.1657 33.7848 83.0657 34.3048 83.0657C34.8328 83.0657 35.2688 83.1657 35.6128 83.3657C35.9648 83.5657 36.2128 83.8537 36.3568 84.2297C36.5088 84.6057 36.5408 85.0537 36.4528 85.5737L35.8288 89.5457C35.7488 90.0657 35.5728 90.5177 35.3008 90.9017C35.0368 91.2777 34.6968 91.5657 34.2808 91.7657C33.8728 91.9657 33.4048 92.0657 32.8768 92.0657ZM33.0328 91.0937C33.5048 91.0937 33.8888 90.9617 34.1848 90.6977C34.4808 90.4257 34.6688 90.0417 34.7488 89.5457L35.3728 85.5857C35.4528 85.0897 35.3848 84.7097 35.1688 84.4457C34.9608 84.1737 34.6208 84.0377 34.1488 84.0377C33.6848 84.0377 33.3048 84.1737 33.0088 84.4457C32.7128 84.7097 32.5248 85.0897 32.4448 85.5857L31.8208 89.5457C31.7408 90.0417 31.8048 90.4257 32.0128 90.6977C32.2288 90.9617 32.5688 91.0937 33.0328 91.0937Z" fill="#3B2159"/>
<path d="M37.4081 91.9457L38.8001 83.1857H40.1921L40.6481 86.0177C40.6881 86.2737 40.7241 86.5297 40.7561 86.7857C40.7961 87.0337 40.8241 87.2257 40.8401 87.3617C40.8961 87.2257 40.9761 87.0337 41.0801 86.7857C41.1841 86.5297 41.2961 86.2697 41.4161 86.0057L42.7361 83.1857H44.1761L42.7841 91.9457H41.7281L42.2321 88.7657C42.2961 88.3897 42.3721 87.9777 42.4601 87.5297C42.5561 87.0817 42.6601 86.6297 42.7721 86.1737C42.8841 85.7097 42.9921 85.2657 43.0961 84.8417C43.2081 84.4177 43.3081 84.0457 43.3961 83.7257L41.2961 88.1057H40.1561L39.4121 83.7257C39.4041 84.0377 39.3841 84.4017 39.3521 84.8177C39.3281 85.2257 39.2961 85.6617 39.2561 86.1257C39.2241 86.5817 39.1841 87.0377 39.1361 87.4937C39.0881 87.9497 39.0321 88.3737 38.9681 88.7657L38.4641 91.9457H37.4081Z" fill="#3B2159"/>
<path d="M44.7954 91.9457L46.1874 83.1857H47.2674L46.6674 86.9417H47.9394L50.4834 83.1857H51.6834L48.8394 87.4337L50.4114 91.9457H49.2114L47.8194 87.8897H46.5234L45.8754 91.9457H44.7954Z" fill="#3B2159"/>
<path d="M52.0867 91.9457L53.4787 83.1857H58.5187L58.3627 84.1697H54.3907L53.9587 86.8817H57.5107L57.3547 87.8537H53.8027L53.3107 90.9617H57.2827L57.1267 91.9457H52.0867Z" fill="#3B2159"/>
<path d="M61.142 91.9457L61.658 88.6697L59.894 83.1857H60.986L62.15 86.7857C62.214 86.9857 62.262 87.1577 62.294 87.3017C62.334 87.4377 62.358 87.5377 62.366 87.6017C62.398 87.5377 62.45 87.4377 62.522 87.3017C62.602 87.1577 62.706 86.9857 62.834 86.7857L65.114 83.1857H66.254L62.738 88.6697L62.222 91.9457H61.142Z" fill="#3B2159"/>
</svg>
